<?xml version="1.0" encoding="UTF-8"?>
<svg width="28px" height="26px" viewBox="0 0 28 26" version="1.1" xmlns="http://www.w3.org/2000/svg" xmlns:xlink="http://www.w3.org/1999/xlink">
    <!-- Generator: Sketch 55 (78076) - https://sketchapp.com -->
    <title>basket</title>
    <desc>Created with Sketch.</desc>
    <g id="页面-1" stroke="none" stroke-width="1" fill="none" fill-rule="evenodd">
        <g id="商家详情" transform="translate(-24.000000, -629.000000)" fill-rule="nonzero">
            <g id="编组-8" transform="translate(0.000000, 618.000000)">
                <g id="basket" transform="translate(24.000000, 11.000000)">
                    <path d="M27.0411228,8.89880492 L0.904296296,8.89880492 C0.646565302,8.89880492 0.437575049,9.1090795 0.437575049,9.36839435 L0.437575049,11.7163964 C0.437575049,11.9757113 0.646565302,12.1859859 0.904296296,12.1859859 L1.40212865,12.1859859 L2.21734893,24.4892181 C2.26636257,25.2292704 2.87728655,25.8042992 3.61445614,25.8042992 L24.3310721,25.8042992 C25.0681871,25.8042992 25.6791111,25.2292704 25.7281793,24.4892181 L26.5433996,12.1859859 L27.041232,12.1859859 C27.298963,12.1859859 27.5079532,11.9757113 27.5079532,11.7163964 L27.5079532,9.36839435 C27.5078441,9.10902458 27.2989084,8.89880492 27.0411228,8.89880492 Z M7.43850292,22.5171731 C7.43850292,23.0358577 7.02052242,23.456352 6.50506043,23.456352 C5.98959844,23.456352 5.57161793,23.0358028 5.57161793,22.5171731 L5.57161793,15.4731668 C5.57161793,14.9544273 5.98959844,14.533988 6.50506043,14.533988 C7.02052242,14.533988 7.43850292,14.9544273 7.43850292,15.4731668 L7.43850292,22.5171731 Z M11.1723275,22.5171731 C11.1723275,23.0358577 10.754347,23.456352 10.238885,23.456352 C9.72336842,23.456352 9.3054425,23.0358028 9.3054425,22.5171731 L9.3054425,15.4731668 C9.3054425,14.9544273 9.723423,14.533988 10.238885,14.533988 C10.7544016,14.533988 11.1723275,14.9544273 11.1723275,15.4731668 L11.1723275,22.5171731 Z M14.906152,22.5171731 C14.906152,23.0358577 14.4881715,23.456352 13.9727096,23.456352 C13.4572476,23.456352 13.0392671,23.0358028 13.0392671,22.5171731 L13.0392671,15.4731668 C13.0392671,14.9544273 13.4572476,14.533988 13.9727096,14.533988 C14.4881715,14.533988 14.906152,14.9544273 14.906152,15.4731668 L14.906152,22.5171731 Z M18.6399766,22.5171731 C18.6399766,23.0358577 18.2219961,23.456352 17.7065341,23.456352 C17.1910175,23.456352 16.7730916,23.0358028 16.7730916,22.5171731 L16.7730916,15.4731668 C16.7730916,14.9544273 17.1910721,14.533988 17.7065341,14.533988 C18.2220507,14.533988 18.6399766,14.9544273 18.6399766,15.4731668 L18.6399766,22.5171731 Z M22.3738558,22.5171731 C22.3738558,23.0358577 21.9558752,23.456352 21.4404133,23.456352 C20.9248967,23.456352 20.5069708,23.0358028 20.5069708,22.5171731 L20.5069708,15.4731668 C20.5069708,14.9544273 20.9249513,14.533988 21.4404133,14.533988 C21.9559298,14.533988 22.3738558,14.9544273 22.3738558,15.4731668 L22.3738558,22.5171731 Z" id="Shape" fill="#0091FF"></path>
                    <path d="M8.90506043,10.3324503 L8.90506043,10.3324503 C9.35153216,10.5917652 9.92239376,10.4378896 10.1801793,9.98872908 L14.8474464,1.85507322 C15.1051774,1.40585774 14.9522417,0.831487971 14.5058246,0.572118201 L14.5058246,0.572118201 C14.0593528,0.312803347 13.4884912,0.46667887 13.2307057,0.915839435 L8.5634386,9.04949529 C8.30565302,9.49865586 8.45864327,10.0731355 8.90506043,10.3324503 Z" id="Shape" fill="#707487"></path>
                    <path d="M19.0403587,10.3324503 L19.0403587,10.3324503 C18.5938869,10.5917652 18.0230253,10.4378896 17.7652398,9.98872908 L13.0979727,1.85507322 C12.8402417,1.40585774 12.9931774,0.831487971 13.4395945,0.572118201 L13.4395945,0.572118201 C13.8860663,0.312803347 14.4569279,0.46667887 14.7147135,0.915839435 L19.3819805,9.04949529 C19.6397661,9.49865586 19.4867758,10.0731355 19.0403587,10.3324503 Z" id="Shape" fill="#707487"></path>
                </g>
            </g>
        </g>
    </g>
</svg>