<?xml version="1.0" encoding="UTF-8"?>
<svg width="14px" height="11px" viewBox="0 0 14 11" version="1.1" xmlns="http://www.w3.org/2000/svg" xmlns:xlink="http://www.w3.org/1999/xlink">
    <!-- Generator: Sketch 55 (78076) - https://sketchapp.com -->
    <title>Groups</title>
    <desc>Created with Sketch.</desc>
    <defs>
        <path d="M6.95511111,8.01955556 C6.21777778,8.41022222 5.33333333,9.08977778 5.33333333,10.6666667 L0,10.6666667 C0,7.11111111 2.66666667,8.44444444 3.11111111,7.11111111 L3.11111111,6.22222222 C2.91111111,6.12311111 2.33911111,5.44222222 2.27911111,4.90977778 C2.12177778,4.89777778 1.87466667,4.75333333 1.80177778,4.18311111 C1.76266667,3.87733333 1.91822222,3.70488889 2.01244444,3.65066667 C1.52622222,1.72133333 1.77377778,0.0417777778 4.19644444,0 C4.80222222,0 5.268,0.152444444 5.44977778,0.453333333 C6.12933333,0.520444444 6.44622222,1.02888889 6.56755556,1.63244444 C6.22,2.53066667 6.22844444,3.67822222 6.22844444,4.23333333 C6.22844444,4.33466667 6.20088889,4.78444444 6.16533333,4.91022222 C6.10488889,5.44222222 5.53333333,6.12311111 5.33333333,6.22222222 L5.33333333,7.11111111 C5.54533333,7.74711111 6.26266667,7.77688889 6.95511111,8.01955556 Z M6.22222222,10.6666667 C6.22222222,8.44444444 8.44444444,8.88888889 8.88888889,7.68577778 L8.88888889,7.11911111 C7.27955556,7.11911111 6.83288889,6.45644444 6.83288889,6.45644444 C7.67377778,5.75688889 6.08355556,0.888888889 8.94666667,0.888888889 C8.94666667,0.888888889 9.33333333,0.444444444 9.83288889,0.444444444 C13.3333333,0.444444444 11.7537778,5.73022222 12.6591111,6.47333333 C12.6591111,6.47333333 12.284,7.11333333 10.6666667,7.11333333 L10.6666667,7.68577778 C11.1111111,8.88888889 13.3333333,8.44444444 13.3333333,10.6666667 L6.22222222,10.6666667 Z" id="path-1"></path>
    </defs>
    <g id="页面-1" stroke="none" stroke-width="1" fill="none" fill-rule="evenodd">
        <g id="我的" transform="translate(-38.000000, -441.000000)">
            <g id="1" transform="translate(18.000000, 327.000000)">
                <g id="Groups" transform="translate(16.000000, 108.000000)">
                    <g id="Icons/groups" transform="translate(4.000000, 6.000000)">
                        <mask id="mask-2" fill="white">
                            <use xlink:href="#path-1"></use>
                        </mask>
                        <use id="Groups" fill="#FFFFFF" fill-rule="nonzero" xlink:href="#path-1"></use>
                    </g>
                </g>
            </g>
        </g>
    </g>
</svg>