<?xml version="1.0" encoding="UTF-8"?>
<svg width="40px" height="40px" viewBox="0 0 40 40" version="1.1" xmlns="http://www.w3.org/2000/svg" xmlns:xlink="http://www.w3.org/1999/xlink">
    <!-- Generator: Sketch 55 (78076) - https://sketchapp.com -->
    <title>医药健康</title>
    <desc>Created with Sketch.</desc>
    <defs>
        <linearGradient x1="93.2666667%" y1="15.0112444%" x2="-19.625%" y2="82.3627249%" id="linearGradient-1">
            <stop stop-color="#3A9BF3" offset="0%"></stop>
            <stop stop-color="#50C7FB" offset="100%"></stop>
        </linearGradient>
        <circle id="path-2" cx="20" cy="20" r="20"></circle>
        <text id="text-4" font-family="SourceHanSansCN-Bold, Source Han Sans CN" font-size="13" font-weight="bold" fill="#FFFFFF">
            <tspan x="7" y="18">医药</tspan>
        </text>
        <filter x="-5.8%" y="-11.5%" width="111.5%" height="123.1%" filterUnits="objectBoundingBox" id="filter-5">
            <feOffset dx="0" dy="0" in="SourceAlpha" result="shadowOffsetOuter1"></feOffset>
            <feGaussianBlur stdDeviation="0.5" in="shadowOffsetOuter1" result="shadowBlurOuter1"></feGaussianBlur>
            <feColorMatrix values="0 0 0 0 0   0 0 0 0 0   0 0 0 0 0  0 0 0 0.203944493 0" type="matrix" in="shadowBlurOuter1"></feColorMatrix>
        </filter>
    </defs>
    <g id="医药健康" stroke="none" stroke-width="1" fill="none" fill-rule="evenodd">
        <mask id="mask-3" fill="white">
            <use xlink:href="#path-2"></use>
        </mask>
        <use id="椭圆形" fill="url(#linearGradient-1)" xlink:href="#path-2"></use>
        <g id="医药" mask="url(#mask-3)" fill="#FFFFFF" fill-opacity="1">
            <use filter="url(#filter-5)" xlink:href="#text-4"></use>
            <use xlink:href="#text-4"></use>
        </g>
        <g id="医药" mask="url(#mask-3)">
            <g transform="translate(8.000000, 22.000000)">
                <path d="M21.0933088,3.1768713 L16.2844186,3.1768713 L16.2844186,1.97958103 C16.2844186,0.886228135 15.3990862,5.42775069e-16 14.3048792,5.42775069e-16 L9.52888475,5.42775069e-16 C8.43555268,5.42775069e-16 7.54932455,0.886228135 7.54932455,1.9795602 L7.54932455,3.17689214 L2.73599682,3.17689214 L2.73599676,3.17689214 C1.22564644,3.17689184 0.000979111611,4.40074696 -5.39166039e-08,5.91109729 L-5.39166039e-08,17.9110833 C-5.39166039e-08,19.4222066 1.22489435,20.6470801 2.73599676,20.6470801 L21.0879754,20.6470801 C22.5990778,20.6470801 23.8248472,19.4222066 23.8248472,17.9110833 L23.8248472,6.54932571 C23.8275347,6.60088815 23.8293056,6.65332559 23.8293056,6.70665886 L23.8293056,5.91109729 C23.8293056,4.39999488 22.6035361,3.1759963 21.0933087,3.1759963 L21.0933088,3.1768713 Z M8.74042733,1.97958103 C8.74042733,1.54401904 9.09421858,1.19112361 9.52888475,1.19112361 L14.3048792,1.19112361 C14.7395453,1.19112361 15.0933158,1.54491487 15.0933158,1.97958103 L15.0933158,3.17691297 L8.74042733,3.17691297 L8.74042733,1.9795602 L8.74042733,1.97958103 Z M17.048876,12.3111107 L17.048876,12.308444 C17.0204177,12.6835686 16.9510844,13.0462348 16.8479804,13.3946719 L16.8479805,13.3946716 C16.8254186,13.4693063 16.8011133,13.5434029 16.7750847,13.6169005 L16.7697514,13.6329005 L16.7697515,13.6329004 C16.7454732,13.7016038 16.7196892,13.769766 16.6924182,13.8373376 L16.6790849,13.8702334 L16.6790848,13.8702336 C16.6686213,13.8957973 16.6579542,13.9212773 16.6470849,13.946671 L16.6293141,13.9893376 L16.5991058,14.0551084 L16.57421,14.1093375 L16.5493142,14.1626707 L16.5493143,14.1626704 C16.5376449,14.1864562 16.5257935,14.2101522 16.513761,14.2337565 L16.4959902,14.2684232 L16.4959903,14.268423 C16.4794511,14.3009032 16.4625612,14.3332038 16.4453237,14.3653187 L16.4408862,14.3733187 L16.4408861,14.3733189 C15.4472623,16.204898 13.4496812,17.2592531 11.3768712,17.0462116 L11.3679753,17.0462116 L11.367975,17.0462116 C11.3305928,17.042188 11.2932572,17.0377432 11.2559751,17.0328783 L11.2124335,17.0266491 L11.2124333,17.0266491 C11.1637304,17.0202798 11.1151276,17.0131679 11.0666418,17.0053158 L11.0222043,16.9973158 L11.0222043,16.9973158 C10.9904477,16.9919666 10.9587381,16.9863414 10.9270794,16.9804408 L10.9084128,16.9768783 L10.9084126,16.9768783 C8.63668607,16.5260038 6.94306304,14.617631 6.76531325,12.3084254 L6.76087576,12.3679878 L6.76087583,12.3679886 C6.50343862,9.52836687 8.59670494,7.01772396 11.4363079,6.76028676 C14.2759296,6.50284956 16.7865725,8.59611587 17.0440097,11.4357188 C17.0704036,11.7268518 17.0720226,12.0196994 17.0488492,12.3111074 L17.048876,12.3111107 Z M15.1528782,10.7200084 L13.1084222,10.7200084 L13.1084222,8.66313575 L13.1084222,8.66311028 C13.1084222,8.47656487 12.9571972,8.32533984 12.7706518,8.32533984 C12.770053,8.32533984 12.7694543,8.32534143 12.7688555,8.32534461 L11.0657325,8.32534461 L11.0657325,8.32534461 C10.8791929,8.32387186 10.7267787,8.47389819 10.7253058,8.66043797 C10.7252987,8.66133035 10.7252952,8.66222276 10.7252953,8.66311516 L10.7252953,10.7209044 L8.68086014,10.7209044 C8.49419369,10.7209044 8.34306886,10.8720084 8.34306886,11.0604457 L8.34306886,12.7635687 C8.34306886,12.9502352 8.49419369,13.10311 8.68086014,13.10311 L10.7252953,13.10311 L10.7252953,15.1351076 C10.7252953,15.3217741 10.8781909,15.4728989 11.0657324,15.4728989 L12.7688554,15.4728989 C12.9555218,15.4728989 13.1083966,15.3217741 13.1083966,15.1351076 L13.1083966,13.102235 L15.1528526,13.102235 L15.1528526,13.102235 C15.339398,13.1022376 15.4906251,12.9510148 15.4906272,12.7644687 C15.4906272,12.7638699 15.4906256,12.7632711 15.4906224,12.7626723 L15.4906224,11.0595493 L15.4906225,11.0595471 C15.4915992,10.8730042 15.3411683,10.7209892 15.1546249,10.7200121 C15.1540331,10.720009 15.1534413,10.7200074 15.1528495,10.7200074 L15.1528782,10.7200084 Z" id="形状" fill="#ECF7FF" fill-rule="nonzero"></path>
                <path d="M15.1528782,10.7200084 L13.1084222,10.7200084 L13.1084222,8.66313575 L13.1084222,8.66311028 C13.1084222,8.47656487 12.9571972,8.32533984 12.7706518,8.32533984 C12.770053,8.32533984 12.7694543,8.32534143 12.7688555,8.32534461 L11.0657325,8.32534461 L11.0657325,8.32534461 C10.8791929,8.32387186 10.7267787,8.47389819 10.7253058,8.66043797 C10.7252987,8.66133035 10.7252952,8.66222276 10.7252953,8.66311516 L10.7252953,10.7209044 L8.68086014,10.7209044 C8.49419369,10.7209044 8.34306886,10.8720084 8.34306886,11.0604457 L8.34306886,12.7635687 C8.34306886,12.9502352 8.49419369,13.10311 8.68086014,13.10311 L10.7252953,13.10311 L10.7252953,15.1351076 C10.7252953,15.3217741 10.8781909,15.4728989 11.0657324,15.4728989 L12.7688554,15.4728989 C12.9555218,15.4728989 13.1083966,15.3217741 13.1083966,15.1351076 L13.1083966,13.102235 L15.1528526,13.102235 L15.1528526,13.102235 C15.339398,13.1022376 15.4906251,12.9510148 15.4906272,12.7644687 C15.4906272,12.7638699 15.4906256,12.7632711 15.4906224,12.7626723 L15.4906224,11.0595493 L15.4906225,11.0595471 C15.4915992,10.8730042 15.3411683,10.7209892 15.1546249,10.7200121 C15.1540331,10.720009 15.1534413,10.7200074 15.1528495,10.7200074 L15.1528782,10.7200084 Z" id="路径" fill="#0088FF" fill-rule="evenodd"></path>
            </g>
        </g>
    </g>
</svg>