<?xml version="1.0" encoding="UTF-8"?>
<svg width="40px" height="40px" viewBox="0 0 40 40" version="1.1" xmlns="http://www.w3.org/2000/svg" xmlns:xlink="http://www.w3.org/1999/xlink">
    <!-- Generator: Sketch 55 (78076) - https://sketchapp.com -->
    <title>家居</title>
    <desc>Created with Sketch.</desc>
    <defs>
        <linearGradient x1="93.2666667%" y1="15.0112444%" x2="-19.625%" y2="82.3627249%" id="linearGradient-1">
            <stop stop-color="#106FC8" offset="0%"></stop>
            <stop stop-color="#55A0E5" offset="100%"></stop>
        </linearGradient>
        <circle id="path-2" cx="20" cy="20" r="20"></circle>
        <text id="text-4" font-family="SourceHanSansCN-Bold, Source Han Sans CN" font-size="13" font-weight="bold" fill="#FFFFFF">
            <tspan x="7" y="18">家居</tspan>
        </text>
        <filter x="-5.8%" y="-19.2%" width="111.5%" height="130.8%" filterUnits="objectBoundingBox" id="filter-5">
            <feOffset dx="0" dy="0" in="SourceAlpha" result="shadowOffsetOuter1"></feOffset>
            <feGaussianBlur stdDeviation="0.5" in="shadowOffsetOuter1" result="shadowBlurOuter1"></feGaussianBlur>
            <feColorMatrix values="0 0 0 0 0   0 0 0 0 0   0 0 0 0 0  0 0 0 0.203944493 0" type="matrix" in="shadowBlurOuter1"></feColorMatrix>
        </filter>
    </defs>
    <g id="家居" stroke="none" stroke-width="1" fill="none" fill-rule="evenodd">
        <mask id="mask-3" fill="white">
            <use xlink:href="#path-2"></use>
        </mask>
        <use id="椭圆形" fill="url(#linearGradient-1)" xlink:href="#path-2"></use>
        <g mask="url(#mask-3)" fill="#FFFFFF" fill-opacity="1">
            <use filter="url(#filter-5)" xlink:href="#text-4"></use>
            <use xlink:href="#text-4"></use>
        </g>
        <g id="家具" mask="url(#mask-3)" fill-rule="nonzero">
            <g transform="translate(8.000000, 22.000000)">
                <path d="M3.32241137,19.1153468 L3.3224114,0.94212253 L3.32241137,0.942147413 C3.32300736,0.421649151 3.74511387,1.47321831e-05 4.26561213,2.31454173e-11 L19.7343801,2.31454173e-11 L19.7343801,0 C20.2543628,0.000811200609 20.6756915,0.422138996 20.6765017,0.942121632 L20.6765017,19.1153468 L3.32241137,19.1153468 Z" id="路径" fill="#FFFFFF"></path>
                <path d="M21.1369076,18.6719637 C20.8028217,18.529616 20.4433912,18.4563269 20.0802435,18.4565058 L3.91980056,18.4565058 C3.55665295,18.4563267 3.19722139,18.529616 2.86313652,18.6719637 C2.62498234,18.7732801 2.36876577,18.8252754 2.10995487,18.8248098 C1.04256573,18.8235921 0.177578003,17.958603 0.176358917,16.8912138 L0.176358917,6.49946183 C0.176358756,5.43156836 1.04205747,4.56586612 2.10995492,4.56586612 C3.17784868,4.56586596 4.04355092,5.43156468 4.04355092,6.49946212 L4.04355092,10.2193325 C4.04495455,10.9615861 4.64664866,11.5628166 5.38893591,11.5636416 L18.6110495,11.5636416 C19.3530458,11.5622223 19.9541437,10.96096 19.9553591,10.2189637 L19.9553591,6.49909327 C19.9553589,5.43119979 20.8210577,4.56549756 21.8889551,4.56549756 C22.9568489,4.5654974 23.8225511,5.43119611 23.8225511,6.49909356 L23.8225511,16.8908456 C23.8215764,17.9578664 22.9572504,18.8229278 21.8901595,18.8248099 C21.6312802,18.8252754 21.3750603,18.77328 21.1369076,18.6719637 Z" id="路径" fill="#0058AB"></path>
                <path d="M20.9225546,17.1125099 L20.4710139,17.1125099 L20.4710139,17.1125099 C20.1886828,17.1123065 19.9596423,17.3410164 19.9594397,17.6233475 C19.9594396,17.6234704 19.9594396,17.6235932 19.9594396,17.623716 L19.9594396,18.4424558 L19.9594396,18.4424558 C19.9594396,18.7249907 20.1884793,18.9540301 20.4710138,18.9540301 L20.9210813,18.9540301 L20.9210813,18.9540301 C21.2036161,18.9540301 21.4326555,18.7249907 21.4326555,18.4424558 L21.4326555,17.6237161 L21.4326555,17.6237159 C21.4326555,17.3413848 21.2037807,17.11251 20.9214496,17.11251 C20.9213268,17.11251 20.921204,17.11251 20.9210811,17.1125101 L20.9225546,17.1125099 Z M3.53492281,17.1125099 L3.08485532,17.1125099 L3.08485532,17.1125099 C2.80252415,17.1123065 2.57348363,17.3410164 2.57328106,17.6233475 C2.57328097,17.6234704 2.57328093,17.6235932 2.57328093,17.623716 L2.57328093,18.4424558 L2.57328093,18.4424558 C2.57328097,18.7249907 2.80232071,18.9540301 3.08485518,18.9540301 L3.53492267,18.9540301 L3.53492265,18.9540301 C3.81745749,18.9540301 4.04649691,18.7249907 4.04649691,18.4424558 L4.04649691,17.6237161 L4.04649691,17.6237159 C4.04649691,17.3413848 3.81762212,17.11251 3.53529095,17.11251 C3.53516814,17.11251 3.53504533,17.11251 3.53492252,17.1125101 L3.53492281,17.1125099 Z" id="形状" fill="#000000"></path>
            </g>
        </g>
    </g>
</svg>