<?xml version="1.0" encoding="UTF-8"?>
<svg width="40px" height="40px" viewBox="0 0 40 40" version="1.1" xmlns="http://www.w3.org/2000/svg" xmlns:xlink="http://www.w3.org/1999/xlink">
    <!-- Generator: Sketch 55 (78076) - https://sketchapp.com -->
    <title>水果店</title>
    <desc>Created with Sketch.</desc>
    <defs>
        <linearGradient x1="93.2666667%" y1="15.0112444%" x2="-19.625%" y2="82.3627249%" id="linearGradient-1">
            <stop stop-color="#FFAC2F" offset="0%"></stop>
            <stop stop-color="#F9D12E" offset="100%"></stop>
        </linearGradient>
        <circle id="path-2" cx="20" cy="20" r="20"></circle>
        <text id="text-4" font-family="SourceHanSansCN-Bold, Source Han Sans CN" font-size="13" font-weight="bold" fill="#FFFFFF">
            <tspan x="7" y="18">水果</tspan>
        </text>
        <filter x="-5.8%" y="-19.2%" width="111.5%" height="130.8%" filterUnits="objectBoundingBox" id="filter-5">
            <feOffset dx="0" dy="0" in="SourceAlpha" result="shadowOffsetOuter1"></feOffset>
            <feGaussianBlur stdDeviation="0.5" in="shadowOffsetOuter1" result="shadowBlurOuter1"></feGaussianBlur>
            <feColorMatrix values="0 0 0 0 0   0 0 0 0 0   0 0 0 0 0  0 0 0 0.203944493 0" type="matrix" in="shadowBlurOuter1"></feColorMatrix>
        </filter>
    </defs>
    <g id="水果店" stroke="none" stroke-width="1" fill="none" fill-rule="evenodd">
        <mask id="mask-3" fill="white">
            <use xlink:href="#path-2"></use>
        </mask>
        <use id="椭圆形" fill="url(#linearGradient-1)" xlink:href="#path-2"></use>
        <g id="水果" mask="url(#mask-3)" fill="#FFFFFF" fill-opacity="1">
            <use filter="url(#filter-5)" xlink:href="#text-4"></use>
            <use xlink:href="#text-4"></use>
        </g>
        <g id="橙子" mask="url(#mask-3)" fill-rule="nonzero">
            <g transform="translate(7.000000, 22.000000)">
                <path d="M0.455000529,13.0000151 L0.455000529,13.0000134 C0.454999483,19.9284375 6.07159105,25.545028 13.0000151,25.545028 C19.9284392,25.545029 25.5450297,19.9284375 25.5450297,13.0000134 C25.5450297,13.0000132 25.5450297,13.0000132 25.5450297,13.0000131 L25.5450297,13.0000131 C25.5450297,6.07158897 19.9284392,0.454998453 13.0000151,0.454998453 C6.07159105,0.454998453 0.455000529,6.07158897 0.455000529,13.0000131 L0.455000529,13.0000151 Z" id="路径" fill="#FB8C00"></path>
                <path d="M1.722502,13.0000151 L1.722502,13.0000168 C1.72250294,19.2284206 6.7716114,24.27753 13.0000151,24.27753 C19.2284189,24.277529 24.2775283,19.2284206 24.2775283,13.0000168 L24.2775283,13.0000168 C24.2775283,6.7716131 19.2284189,1.72250371 13.0000151,1.72250371 C6.7716114,1.72250371 1.722502,6.7716131 1.722502,13.0000168 L1.722502,13.0000151 Z" id="路径" fill="#FFF9C4"></path>
                <path d="M13.6565159,14.4495168 C13.6565159,14.4495168 13.2470154,13.6045158 12.7140148,14.4105168 L10.9070127,20.5270239 C10.9070127,20.5270239 10.6470124,22.2170259 12.876515,22.327526 C15.1775177,22.4445261 15.0670175,20.6960241 15.0670175,20.6960241 L13.6565159,14.4495168 L13.6565159,14.4495168 Z M14.5470169,13.6370159 C14.5470169,13.6370159 13.6890159,13.2535154 13.7995161,14.2155165 L16.347519,20.0590233 C16.347519,20.0590233 17.2315201,21.521525 19.0125221,20.1695235 C20.8520243,18.7785219 19.6365228,17.5110204 19.6365228,17.5110204 L14.5470169,13.6370159 Z M21.0925245,12.1420141 L14.7030171,12.4410145 C14.7030171,12.4410145 13.7995161,12.7010148 14.5015169,13.3640156 L20.2150235,16.2045189 C20.2150235,16.2045189 21.8335254,16.7570195 22.327526,14.579517 C22.8345266,12.3305143 21.0925245,12.1420141 21.0925245,12.1420141 Z M14.4950169,12.2655143 L20.6960241,10.7705125 C20.6960241,10.7705125 22.2885259,10.1530118 21.2680247,8.1640095 C20.2150235,6.11650712 18.7590218,7.08500824 18.7590218,7.08500824 L14.0595164,11.4270133 C14.0595164,11.4270133 13.5330157,12.2070142 14.4950169,12.2655143 L14.4950169,12.2655143 Z M13.786516,11.4270133 L17.5760205,6.29850733 C17.5760205,6.29850733 18.3950214,4.80350559 16.341019,3.93250458 C14.2155165,3.03550353 13.728016,4.71900549 13.728016,4.71900549 L12.915515,11.0630129 C12.909015,11.0695129 13.0065151,11.999014 13.786516,11.4270133 Z M11.7975137,11.5310134 C11.7975137,11.5310134 12.4735145,12.1810142 12.7010148,11.2450131 L12.3045143,4.87500567 C12.3045143,4.87500567 11.9730139,3.19800372 9.83451144,3.86100449 C7.63100888,4.53700528 8.3395097,6.14250715 8.3395097,6.14250715 L11.7975137,11.5310134 L11.7975137,11.5310134 Z M5.13500598,10.6925124 L11.2450131,12.5970147 C11.2450131,12.5970147 12.1810142,12.6620147 11.7520137,11.7975137 L7.35800856,7.17600835 C7.35800856,7.17600835 6.02550701,6.1035071 4.8165056,7.98200929 C3.56200414,9.91901154 5.13500598,10.6925124 5.13500598,10.6925124 Z M11.3815132,12.8310149 L5.04400587,12.1160141 C5.04400587,12.1160141 3.33450388,12.1550141 3.61400421,14.3715167 C3.90000454,16.6595194 5.60300652,16.2435189 5.60300652,16.2435189 L11.5050134,13.773516 C11.5050134,13.767016 12.2655143,13.2145154 11.3815132,12.8310149 L11.3815132,12.8310149 Z M11.7585137,13.8645161 L6.4415075,17.3875202 C6.4415075,17.3875202 5.154506,18.5120215 6.7925079,20.0330233 C8.48250987,21.5995251 9.51601107,20.1890235 9.51601107,20.1890235 L12.4475145,14.5015169 C12.4605145,14.5015169 12.6815148,13.5915158 11.7585137,13.8645161 L11.7585137,13.8645161 Z" id="形状" fill="#FB8C00"></path>
            </g>
        </g>
    </g>
</svg>