<?xml version="1.0" encoding="UTF-8"?>
<svg width="40px" height="40px" viewBox="0 0 40 40" version="1.1" xmlns="http://www.w3.org/2000/svg" xmlns:xlink="http://www.w3.org/1999/xlink">
    <!-- Generator: Sketch 55 (78076) - https://sketchapp.com -->
    <title>签到</title>
    <desc>Created with Sketch.</desc>
    <defs>
        <circle id="path-1" cx="20" cy="20" r="20"></circle>
        <text id="text-3" font-family="SourceHanSansCN-Bold, Source Han Sans CN" font-size="13" font-weight="bold" fill="#FFFFFF">
            <tspan x="7" y="18">签到</tspan>
        </text>
        <filter x="-5.8%" y="-19.2%" width="111.5%" height="130.8%" filterUnits="objectBoundingBox" id="filter-4">
            <feOffset dx="0" dy="0" in="SourceAlpha" result="shadowOffsetOuter1"></feOffset>
            <feGaussianBlur stdDeviation="0.5" in="shadowOffsetOuter1" result="shadowBlurOuter1"></feGaussianBlur>
            <feColorMatrix values="0 0 0 0 0   0 0 0 0 0   0 0 0 0 0  0 0 0 0.203944493 0" type="matrix" in="shadowBlurOuter1"></feColorMatrix>
        </filter>
    </defs>
    <g id="签到" stroke="none" stroke-width="1" fill="none" fill-rule="evenodd">
        <mask id="mask-2" fill="white">
            <use xlink:href="#path-1"></use>
        </mask>
        <use id="椭圆形" fill="#FA6400" xlink:href="#path-1"></use>
        <g mask="url(#mask-2)" fill="#FFFFFF" fill-opacity="1">
            <use filter="url(#filter-4)" xlink:href="#text-3"></use>
            <use xlink:href="#text-3"></use>
        </g>
        <g mask="url(#mask-2)">
            <g transform="translate(10.000000, 22.000000)">
                <path d="M17.5437784,1.62862392 L15.7637856,1.62862392 L15.7637856,3.06957035 C15.7637856,3.57813884 15.2552172,4.08670937 14.6618855,4.08670937 C14.0685539,4.08670937 13.5599855,3.66290196 13.5599855,3.06957035 L13.5599855,1.62862392 L6.60953652,1.62862392 L6.60953652,3.06957035 C6.60953652,3.57813884 6.10096803,4.08670937 5.50763643,4.08670937 C4.91430482,4.08670937 4.40573634,3.66290196 4.40573634,3.06957035 L4.40573634,1.62862392 L2.45622142,1.62862392 C1.26956025,1.62862392 0.25241305,2.47623875 0.25241305,3.57813884 L0.25241305,19.1742582 C0.25241305,20.2761583 1.26955207,21.1237731 2.45622142,21.1237731 L17.5437743,21.1237731 C18.7304355,21.1237731 19.7475827,20.2761583 19.7475827,19.1742582 L19.7475827,3.57813884 C19.7475827,2.47623875 18.7304437,1.62862392 17.5437743,1.62862392 L17.5437784,1.62862392 Z M18.3066322,18.8352139 C18.3066322,19.1742602 17.9675858,19.4285455 17.5437784,19.4285455 L2.45622551,19.4285455 C2.0324181,19.4285455 1.69337176,19.1742602 1.69337176,18.8352139 L1.69337176,7.05335308 L18.3066322,7.05335308 L18.306624,18.8352139 L18.3066322,18.8352139 Z" id="形状" fill="#FFFFFF" fill-rule="nonzero"></path>
                <path d="M5.42288763,3.66288968 C5.76193397,3.66288968 5.93145612,3.49336672 5.93145612,3.23908227 L5.93145612,0.611478766 C5.93145612,0.3571935 5.67717085,0.187671353 5.42288763,0.187671353 C5.08384129,0.187671353 4.91431914,0.357194318 4.91431914,0.611478766 L4.91431914,3.23908227 C4.82955766,3.49336754 5.08384211,3.66288968 5.42288763,3.66288968 Z" id="路径" fill="#FEB82F" fill-rule="evenodd"></path>
                <path d="M14.5771245,3.66288968 C14.9161708,3.66288968 15.085693,3.49336672 15.085693,3.23908227 L15.085693,0.611478766 C15.085693,0.3571935 14.8314077,0.187671353 14.5771245,0.187671353 C14.2380781,0.187671353 14.068556,0.357194318 14.068556,0.611478766 L14.068556,3.23908227 C14.068556,3.49336754 14.3228413,3.66288968 14.5771245,3.66288968 Z" id="路径" fill="#FEB82F" fill-rule="evenodd"></path>
                <path d="M15.0009319,10.6133386 L9.66095357,16.7161768 C9.40666831,17.0552232 8.89809982,17.0552232 8.64381456,16.7161768 L5.67716676,13.2409626 C5.42288149,12.9019162 5.42288149,12.3933478 5.67716676,12.0543014 C5.93145202,11.7152551 6.44002051,11.7152551 6.69430578,12.0543014 L9.15238713,14.9361984 L13.983799,9.42669792 C14.2380843,9.08765158 14.7466528,9.08765158 15.000938,9.42669792 C15.2552233,9.76574425 15.2552233,10.2743127 15.000938,10.6133591 L15.0009319,10.6133386 Z" id="路径" fill="#FEB82F" fill-rule="evenodd"></path>
            </g>
        </g>
    </g>
</svg>