<?xml version="1.0" encoding="UTF-8"?>
<svg width="66px" height="66px" viewBox="0 0 66 66" version="1.1" xmlns="http://www.w3.org/2000/svg" xmlns:xlink="http://www.w3.org/1999/xlink">
    <!-- Generator: Sketch 55 (78076) - https://sketchapp.com -->
    <title>编组</title>
    <desc>Created with Sketch.</desc>
    <defs>
        <linearGradient x1="50%" y1="22.2831159%" x2="50%" y2="155.227057%" id="linearGradient-1">
            <stop stop-color="#FFFFFF" offset="0%"></stop>
            <stop stop-color="#0091FF" offset="100%"></stop>
        </linearGradient>
    </defs>
    <g id="页面-1" stroke="none" stroke-width="1" fill="none" fill-rule="evenodd">
        <g id="登陆" transform="translate(-155.000000, -140.000000)" fill-rule="nonzero">
            <g id="编组" transform="translate(155.000000, 140.000000)">
                <path d="M32.3513721,7.7469908e-05 L32.3513712,7.74771827e-05 C14.3399747,0.144874916 -0.143720524,14.8633545 0.00107627815,32.874751 C0.145873717,50.8861475 14.8643533,65.3698427 32.8757498,65.2250459 C50.7857503,65.0810636 65.2284665,50.5207778 65.2271282,32.6101399 L65.2271292,32.6103147 C65.1151909,14.5431535 50.4190433,-0.0344174292 32.3515635,6.10345881e-05" id="路径" fill="#0091FF"></path>
                <path d="M32.3515635,9.7834048 C37.7547083,9.81007781 42.1131748,14.2118161 42.0865353,19.6149292 C42.0598623,25.0180741 37.6581239,29.3765407 32.2550109,29.3499011 C26.8707622,29.3233214 22.5199752,24.9510737 22.5199115,19.5667486 L22.5199111,19.566719 C22.4504807,14.2325501 26.7183938,9.85207722 32.0525372,9.78261045 C32.1522175,9.78131299 32.2519125,9.78155876 32.3515853,9.78334767 L32.3515635,9.7834048 Z M32.3515853,56.0922582 C24.4709312,56.0572727 17.1092375,52.1572267 12.6537405,45.6568828 C12.6537405,39.1335064 25.7971093,35.5457705 32.3515864,35.5457705 C38.9060634,35.5457705 52.0839108,39.1300203 52.0839108,45.6568828 C47.6137948,52.1585891 40.241611,56.0573323 32.3515874,56.0922568 Z" id="形状结合" fill="url(#linearGradient-1)"></path>
            </g>
        </g>
    </g>
</svg>