<?xml version="1.0" encoding="UTF-8"?>
<svg width="40px" height="40px" viewBox="0 0 40 40" version="1.1" xmlns="http://www.w3.org/2000/svg" xmlns:xlink="http://www.w3.org/1999/xlink">
    <!-- Generator: Sketch 55 (78076) - https://sketchapp.com -->
    <title>菜市场</title>
    <desc>Created with Sketch.</desc>
    <defs>
        <linearGradient x1="93.2666667%" y1="15.0112444%" x2="-19.625%" y2="82.3627249%" id="linearGradient-1">
            <stop stop-color="#FF6565" offset="0%"></stop>
            <stop stop-color="#FFB1B1" offset="100%"></stop>
        </linearGradient>
        <circle id="path-2" cx="20" cy="20" r="20"></circle>
        <text id="text-4" font-family="SourceHanSansCN-Bold, Source Han Sans CN" font-size="13" font-weight="bold" fill="#FFFFFF">
            <tspan x="7" y="18">菜场</tspan>
        </text>
        <filter x="-5.8%" y="-11.5%" width="111.5%" height="123.1%" filterUnits="objectBoundingBox" id="filter-5">
            <feOffset dx="0" dy="0" in="SourceAlpha" result="shadowOffsetOuter1"></feOffset>
            <feGaussianBlur stdDeviation="0.5" in="shadowOffsetOuter1" result="shadowBlurOuter1"></feGaussianBlur>
            <feColorMatrix values="0 0 0 0 0   0 0 0 0 0   0 0 0 0 0  0 0 0 0.203944493 0" type="matrix" in="shadowBlurOuter1"></feColorMatrix>
        </filter>
    </defs>
    <g id="菜市场" stroke="none" stroke-width="1" fill="none" fill-rule="evenodd">
        <mask id="mask-3" fill="white">
            <use xlink:href="#path-2"></use>
        </mask>
        <use id="椭圆形" fill="url(#linearGradient-1)" xlink:href="#path-2"></use>
        <g id="菜场" mask="url(#mask-3)" fill="#FFFFFF" fill-opacity="1">
            <use filter="url(#filter-5)" xlink:href="#text-4"></use>
            <use xlink:href="#text-4"></use>
        </g>
        <g id="蔬菜" mask="url(#mask-3)">
            <g transform="translate(8.000000, 22.000000)">
                <path d="M7.86048476,9.74349079 L7.96048476,9.64349079 L7.86048476,9.74349079 Z M17.6117231,4.28148805 C17.4520806,4.34360577 17.3061027,4.40385995 17.1887009,4.4597659 C19.3945017,5.95555937 19.7342838,8.07066165 19.7342838,9.1589653 C19.7342838,9.5838499 19.6864531,9.85095609 19.6845896,9.86089553 L19.5417189,10.6075517 L19.0708678,10.0205393 C17.8247857,8.46573398 16.4600612,7.80169314 15.7009815,7.52961874 C15.9320594,8.33279964 16.0283431,9.05957695 16.0283431,9.69938946 C16.0283431,11.9499132 14.9083618,13.1705203 14.8437569,13.2388559 L14.2946369,13.8202784 L14.2437004,13.0102639 C14.0927543,10.6336394 12.5926126,8.81980498 12.0099466,8.19987136 C11.4229341,8.81856445 9.90726179,10.6330236 9.7569357,13.0102639 L9.70599917,13.8202784 L9.15625735,13.2388559 C9.09165493,13.1705264 7.97167123,11.9499132 7.97167123,9.69938946 C7.97167123,9.05957695 8.0679537,8.33279964 8.29965158,7.52899695 C7.53995308,7.80169374 6.17522558,8.46573095 4.92915868,10.0205393 L4.45892634,10.6075517 L4.3154344,9.86089553 L4.31543437,9.86089533 C4.27954622,9.6286894 4.26292488,9.39391142 4.2657402,9.15896813 C4.2657402,8.07066447 4.60552533,5.95493131 6.81194491,4.45976873 C6.69392124,4.40386278 6.5479446,4.34298742 6.3876821,4.28149087 C2.70411347,6.10464594 0.19765743,9.66337857 0.19765743,13.746375 C0.19765743,19.6804674 5.49194944,24.5082699 12.0000241,24.5082699 C18.5074618,24.5082699 23.8023908,19.6804674 23.8023908,13.746375 C23.8023908,9.66398519 21.2959408,6.104652 17.6117292,4.28149087 L17.6117231,4.28148805 Z" id="形状" fill="#FB534F" fill-rule="nonzero"></path>
                <path d="M8.16982979,4.47405298 L7.66978215,4.75047683 C5.41055948,5.99779942 5.00120432,7.86691795 4.96393369,8.92231256 C6.80882995,7.00163147 8.69657774,6.65190992 8.78417343,6.63762406 L9.38050353,6.53885689 L9.16681858,7.12276345 C8.80591402,8.10857287 8.67298271,8.96952203 8.67298271,9.7006488 C8.67298271,10.7318029 8.93511949,11.498335 9.18918156,12.0077003 C9.73581749,9.29315596 11.688798,7.50601582 11.7813528,7.42342474 L12.0124307,7.21657273 L12.2422663,7.42466709 C12.3335793,7.50728366 14.2673039,9.29316688 14.810834,12.0064555 C15.0655166,11.4970902 15.326411,10.7311799 15.326411,9.70126634 C15.326411,8.96952082 15.1947215,8.10856862 14.8331969,7.12213742 L14.6188908,6.53885264 L15.2164645,6.63824099 C15.3034293,6.65190689 17.1905644,7.00162965 19.0360976,8.92231075 C18.998827,7.86630952 18.5894718,5.99780973 16.3308709,4.75047501 L15.8308233,4.47467233 L16.2936003,4.13675255 C16.3488851,4.09637603 17.5185629,3.26586091 19.7752863,3.06646546 C18.5907002,2.3104916 16.230239,1.29735402 13.7635468,3.08820666 L13.425627,3.33357165 L12.0000254,0.282341996 L10.5744237,3.33357165 L10.2365039,3.08820666 C7.77043045,1.29735402 5.40933836,2.3104916 4.22476437,3.06646546 C6.4814999,3.26524216 7.6517941,4.09637603 7.70645041,4.13675255 L8.16922742,4.47467233 L8.16982979,4.47405298 Z" id="路径" fill="#FFFFFF" fill-rule="evenodd"></path>
            </g>
        </g>
    </g>
</svg>