<?xml version="1.0" encoding="UTF-8"?>
<svg width="40px" height="40px" viewBox="0 0 40 40" version="1.1" xmlns="http://www.w3.org/2000/svg" xmlns:xlink="http://www.w3.org/1999/xlink">
    <!-- Generator: Sketch 55 (78076) - https://sketchapp.com -->
    <title>蛋糕</title>
    <desc>Created with Sketch.</desc>
    <defs>
        <linearGradient x1="93.2666667%" y1="15.0112444%" x2="-19.625%" y2="82.3627249%" id="linearGradient-1">
            <stop stop-color="#FFAC2F" offset="0%"></stop>
            <stop stop-color="#F9D12E" offset="100%"></stop>
        </linearGradient>
        <circle id="path-2" cx="20" cy="20" r="20"></circle>
        <text id="text-4" font-family="SourceHanSansCN-Bold, Source Han Sans CN" font-size="13" font-weight="bold" fill="#FFFFFF">
            <tspan x="7" y="18">蛋糕</tspan>
        </text>
        <filter x="-5.8%" y="-19.2%" width="111.5%" height="130.8%" filterUnits="objectBoundingBox" id="filter-5">
            <feOffset dx="0" dy="0" in="SourceAlpha" result="shadowOffsetOuter1"></feOffset>
            <feGaussianBlur stdDeviation="0.5" in="shadowOffsetOuter1" result="shadowBlurOuter1"></feGaussianBlur>
            <feColorMatrix values="0 0 0 0 0   0 0 0 0 0   0 0 0 0 0  0 0 0 0.203944493 0" type="matrix" in="shadowBlurOuter1"></feColorMatrix>
        </filter>
    </defs>
    <g id="蛋糕" stroke="none" stroke-width="1" fill="none" fill-rule="evenodd">
        <mask id="mask-3" fill="white">
            <use xlink:href="#path-2"></use>
        </mask>
        <use id="椭圆形" fill="url(#linearGradient-1)" xlink:href="#path-2"></use>
        <g mask="url(#mask-3)" fill="#FFFFFF" fill-opacity="1">
            <use filter="url(#filter-5)" xlink:href="#text-4"></use>
            <use xlink:href="#text-4"></use>
        </g>
        <g mask="url(#mask-3)">
            <g transform="translate(8.000000, 22.000000)">
                <path d="M21.0732899,20.075194 L2.88505819,20.075194 L21.0732899,20.075194 Z M22.587818,20.0665526 L1.50947765,20.0665526 C0.953687525,20.0665526 0.495160676,20.5250795 0.495160676,21.0808696 C0.495160676,21.6366597 0.953687525,22.0951865 1.50947765,22.0951865 L22.587818,22.0951865 C23.1436081,22.0951865 23.6021349,21.6366597 23.6021349,21.0808696 C23.6021349,20.5250795 23.1436081,20.0665526 22.587818,20.0665526 Z M7.56758996,1.28084654 C7.19243163,1.00295148 7.24801064,0.349898084 7.0812736,0.349898084 C6.90064181,0.349898084 6.05306188,1.46147832 6.31706219,2.68421659 C6.58106249,3.90695485 7.56758996,4.03200763 7.56758996,4.03200763 C7.56758996,4.03200763 8.24843286,4.21263942 8.56801217,3.39284899 C8.84590724,2.36463727 7.94274829,1.54484684 7.56758996,1.28084654 Z M12.0000162,1.29474129 C11.6248578,1.01684623 11.6804368,0.363792837 11.5136998,0.363792837 C11.333068,0.363792837 10.4854881,1.47537308 10.7494884,2.69811134 C11.0134887,3.92084961 12.0000162,4.04590238 12.0000162,4.04590238 C12.0000162,4.04590238 12.6808591,4.22653417 13.0004384,3.40674375 C13.2783334,2.37853202 12.3751745,1.5587416 12.0000162,1.29474129 Z M16.2379158,1.46147832 C15.8627575,1.18358326 15.9183365,0.530529873 15.7515995,0.530529873 C15.5848624,0.530529873 14.7233878,1.64211011 14.9873881,2.86484838 C15.2513884,4.08758664 16.2379158,4.21263942 16.2379158,4.21263942 C16.2379158,4.21263942 16.9187587,4.39327121 17.2383381,3.57348078 C17.5162331,2.54526906 16.6130742,1.72547863 16.2379158,1.46147832 L16.2379158,1.46147832 Z M7.17853687,4.37937646 L8.41516989,4.37937646 L8.41516989,7.72801193 L7.17853687,7.72801193 L7.17853687,4.37937646 Z M11.6109631,4.39327121 L12.8475961,4.39327121 L12.8475961,7.74190669 L11.6109631,7.74190669 L11.6109631,4.39327121 Z M15.7515995,4.37937646 L16.9882325,4.37937646 L16.9882325,7.72801193 L15.7515995,7.72801193 L15.7515995,4.37937646 Z" id="形状" fill="#FFFFFF" fill-rule="nonzero"></path>
                <path d="M6.56716774,11.9520168 C7.01179984,12.2438067 7.30358965,12.4244384 7.9983273,12.4244384 C8.69306495,12.4244384 8.98485477,12.2299119 9.42948686,11.9520168 C9.98527698,11.604648 10.6661199,10.8960156 11.9444372,10.8960156 C13.2227544,10.8960156 13.9174921,11.604648 14.4732822,11.9520168 C14.9179143,12.2438067 15.2097041,12.4244384 15.9044418,12.4244384 C16.5991794,12.4244384 16.8909692,12.2854909 17.3356013,11.9937011 C17.8913914,11.6463323 18.5861291,11.326753 19.8783411,11.326753 C20.336868,11.326753 20.7259211,11.382332 21.0455004,11.4795952 L21.0455004,9.36759279 C21.0177109,8.56169711 20.0867624,7.85306471 19.5309723,7.85306471 L17.0021273,7.83916996 L6.92843132,7.83916996 L4.41348102,7.85306471 C3.26021652,7.95032798 2.89895295,8.81180267 2.89895295,9.36759279 L2.88505819,11.4795952 C3.20463751,11.3962267 3.5936906,11.326753 4.05221745,11.326753 C5.33053472,11.3406477 6.01137762,11.5907533 6.56716774,11.9520168 L6.56716774,11.9520168 Z" id="路径" fill="#FFE15B" fill-rule="evenodd"></path>
                <path d="M21.0593951,20.0387631 L21.0593951,13.4804397 C20.7398158,13.2859131 20.4341312,13.1747551 19.8922359,13.1747551 C19.1974982,13.1747551 18.8918137,13.3692817 18.4332868,13.6471767 C17.8774967,13.9945455 17.1966538,14.4391776 15.9044418,14.4391776 C14.2926504,14.4391776 13.695176,12.9107548 11.9444372,12.9107548 C10.207593,12.9107548 9.5962239,14.4391776 7.98443255,14.4391776 C6.70611527,14.4391776 6.01137762,13.9945455 5.4555875,13.6471767 C5.0109554,13.3692817 4.71916559,13.1747551 4.02442794,13.1747551 C3.48253257,13.1747551 3.17684801,13.2859131 2.85726869,13.4804397 L2.85726869,20.0387631 L21.0593951,20.0387631 Z" id="路径" fill="#FB8C00" fill-rule="evenodd"></path>
            </g>
        </g>
    </g>
</svg>