<?xml version="1.0" encoding="UTF-8"?>
<svg width="40px" height="40px" viewBox="0 0 40 40" version="1.1" xmlns="http://www.w3.org/2000/svg" xmlns:xlink="http://www.w3.org/1999/xlink">
    <!-- Generator: Sketch 55 (78076) - https://sketchapp.com -->
    <title>鲜花</title>
    <desc>Created with Sketch.</desc>
    <defs>
        <linearGradient x1="87.6512088%" y1="18.9519289%" x2="-19.625%" y2="82.3627249%" id="linearGradient-1">
            <stop stop-color="#FD609C" offset="0%"></stop>
            <stop stop-color="#FFB4D4" offset="100%"></stop>
        </linearGradient>
        <circle id="path-2" cx="20" cy="20" r="20"></circle>
        <text id="text-4" font-family="SourceHanSansCN-Bold, Source Han Sans CN" font-size="13" font-weight="bold" fill="#FFFFFF">
            <tspan x="7" y="18">鲜花</tspan>
        </text>
        <filter x="-5.8%" y="-19.2%" width="111.5%" height="130.8%" filterUnits="objectBoundingBox" id="filter-5">
            <feOffset dx="0" dy="0" in="SourceAlpha" result="shadowOffsetOuter1"></feOffset>
            <feGaussianBlur stdDeviation="0.5" in="shadowOffsetOuter1" result="shadowBlurOuter1"></feGaussianBlur>
            <feColorMatrix values="0 0 0 0 0   0 0 0 0 0   0 0 0 0 0  0 0 0 0.203944493 0" type="matrix" in="shadowBlurOuter1"></feColorMatrix>
        </filter>
    </defs>
    <g id="鲜花" stroke="none" stroke-width="1" fill="none" fill-rule="evenodd">
        <mask id="mask-3" fill="white">
            <use xlink:href="#path-2"></use>
        </mask>
        <use id="椭圆形" fill="url(#linearGradient-1)" xlink:href="#path-2"></use>
        <g mask="url(#mask-3)" fill="#FFFFFF" fill-opacity="1">
            <use filter="url(#filter-5)" xlink:href="#text-4"></use>
            <use xlink:href="#text-4"></use>
        </g>
        <g mask="url(#mask-3)">
            <g transform="translate(10.000000, 22.000000)">
                <path d="M17.7477396,3.2518914 C14.4000151,3.40317494 13.2398322,4.44477859 13.2398322,4.44477859 C11.9966387,1.95034623 9.97781788,0.539950972 9.97781788,0.539950972 C9.97781788,0.539950972 7.96002325,1.95030831 6.71587934,4.44477859 C6.71587934,4.44477859 5.55576219,3.40317443 2.20797198,3.2518914 C2.20797198,3.2518914 1.24942147,7.09931775 2.57403836,10.4107968 C3.5520411,12.8584387 6.05979379,14.9815397 9.34913126,15.2247178 C9.34031136,15.2688951 9.33503491,15.313072 9.33503491,15.359034 L9.33503491,22.7925697 C9.33503491,23.1506944 9.62505662,23.4443129 9.97963769,23.4443129 C10.3342188,23.4443129 10.6243188,23.1506692 10.6243188,22.7925697 L10.6243188,15.359034 C10.6243188,15.3130723 10.6189647,15.2671361 10.610119,15.2247178 C13.8995575,14.9815624 16.4072673,12.8584715 17.3861723,10.4107968 C18.7062901,7.09931775 17.7477396,3.2518914 17.7477396,3.2518914 Z M5.63086406,16.0355214 C4.01449155,15.2547909 2.41310756,15.1450992 2.41310756,15.1450992 C1.96220561,15.0938351 1.70575518,15.1584196 1.56693815,15.4872901 C1.42812163,15.8153594 0.275066013,16.2008754 0.600445987,16.3414239 C0.600445987,16.3414239 2.78274035,16.684598 3.82356095,17.1276114 C4.72989174,17.5139792 6.73707307,19.4442995 6.73707307,19.4442995 C7.0625314,19.5848749 8.1783907,18.7431043 8.31816568,18.4141023 C8.45602526,18.0843521 8.37475786,17.7872406 8.06166469,17.4989781 C8.06166722,17.4989806 7.26588251,16.8233645 5.63086406,16.0355214 Z M18.4322124,15.4872901 C18.2942494,15.1583917 18.0378776,15.0938071 17.5868189,15.1450992 C17.5868189,15.1450992 15.9855007,15.2547919 14.3690624,16.0355214 C12.7340945,16.8233645 11.9382593,17.4989806 11.9382593,17.4989806 C11.6252417,17.7872709 11.5439245,18.0843547 11.6818619,18.4141301 C11.821558,18.7431321 12.9375215,19.5849035 13.2628762,19.4443273 C13.2628762,19.4443273 15.2701182,17.514007 16.1765147,17.1276392 C17.2171861,16.6846258 19.3995538,16.3414517 19.3995538,16.3414517 C19.7250121,16.2008762 18.5718787,15.8153619 18.4322073,15.4872901 L18.4322124,15.4872901 Z" id="形状" fill="#FFFFFF" fill-rule="nonzero"></path>
                <path d="M13.2398322,4.44477859 C11.9966387,1.95034623 9.97781788,0.539950972 9.97781788,0.539950972 C9.97781788,0.539950972 7.96002325,1.95030831 6.71587934,4.44477859 C6.71587934,4.44477859 5.67726645,15.3104084 9.97781788,15.3104216 C14.4703593,15.3104355 13.2398322,4.44477859 13.2398322,4.44477859 Z" id="路径" fill="#FF2679" fill-rule="evenodd"></path>
            </g>
        </g>
    </g>
</svg>